<svg width="1728" height="1117" viewBox="0 0 1728 1117" fill="none" xmlns="http://www.w3.org/2000/svg">
<g clip-path="url(#clip0_1_26)">
<rect width="1728" height="1117" fill="#82C5B6"/>
<g filter="url(#filter0_f_1_26)">
<path fill-rule="evenodd" clip-rule="evenodd" d="M880.8 529.153C945.812 547.306 965.444 630.248 1018.49 671.99C1064.21 707.969 1152.38 699.045 1167.93 755.108C1184.32 814.217 1093.11 854.816 1086.08 915.751C1078.7 979.795 1155.68 1042.25 1128.1 1100.52C1102.13 1155.36 1025.38 1170.05 964.73 1172.08C909.682 1173.92 869.066 1120.44 814.802 1111C749.543 1099.65 665.823 1160.06 620.111 1112.12C575.274 1065.1 621.723 985.429 634.273 921.681C643.141 876.641 675.985 841.09 682.42 795.639C692.786 722.42 638.735 637.603 682.893 578.286C724.32 522.636 813.979 510.496 880.8 529.153Z" fill="#FBFAE1"/>
</g>
<g filter="url(#filter1_f_1_26)">
<path fill-rule="evenodd" clip-rule="evenodd" d="M1397.83 563.648C1457.9 546.201 1523.31 571.908 1577.34 603.443C1632.76 635.791 1679.79 683.489 1704.56 742.686C1728.94 800.946 1737.38 869.774 1713.19 928.111C1690.49 982.858 1627.67 1005.07 1580.74 1041.27C1543.75 1069.8 1506.78 1093.71 1466.92 1118.08C1411.56 1151.93 1358.86 1241.78 1301.08 1212.25C1237.65 1179.83 1287.7 1070.57 1252.66 1008.56C1228.2 965.279 1157.29 965.378 1136.13 920.394C1113.47 872.217 1109.99 809.457 1137.56 763.909C1164.91 718.723 1232.93 723.524 1274.79 691.315C1322.6 654.528 1339.9 580.473 1397.83 563.648Z" fill="#F1EFB9"/>
</g>
<g filter="url(#filter2_f_1_26)">
<path fill-rule="evenodd" clip-rule="evenodd" d="M347.16 465.039C434.982 466.663 514.145 517.931 570.127 585.617C621.19 647.355 627.005 728.581 631.301 808.584C635.962 895.384 649.019 988.414 595.432 1056.86C537.015 1131.47 441.553 1179.83 347.16 1171.49C257.64 1163.59 201.277 1081.53 139.182 1016.56C79.3008 953.913 4.88822 895.125 0.280655 808.584C-4.48358 719.1 52.1212 640.273 115.791 577.215C179.098 514.516 258.074 463.391 347.16 465.039Z" fill="#0E9577"/>
</g>
<g filter="url(#filter3_f_1_26)">
<path fill-rule="evenodd" clip-rule="evenodd" d="M428.461 7.49935C516.089 0.0783191 616.45 -15.8495 679.369 45.5903C742.57 107.305 731.39 208.438 724.418 296.498C718.149 375.677 698.698 454.409 642.555 510.591C586.393 566.793 507.878 590.264 428.461 592.664C346.167 595.151 262.652 578.529 201.026 523.934C135.845 466.19 91.0399 383.521 94.1526 296.498C97.183 211.775 152.598 140.213 216.734 84.7701C275.819 33.6932 350.638 14.0901 428.461 7.49935Z" fill="#04DEAD"/>
</g>
<g filter="url(#filter4_f_1_26)">
<path fill-rule="evenodd" clip-rule="evenodd" d="M953.169 70.7593C1008.7 77.5039 1063.47 89.933 1109.5 121.72C1154.59 152.854 1184.74 199.047 1209.64 247.853C1235.5 298.511 1260.59 351.826 1255.85 408.501C1250.99 466.788 1227.77 526.426 1183.22 564.318C1140.54 600.607 1079.83 608.397 1023.87 605.782C977.392 603.61 944.106 560.478 898.545 551.014C846.611 540.226 783.045 581.785 742.681 547.371C703.694 514.132 718.604 449.768 719.717 398.547C720.679 354.255 741.704 315.342 748.672 271.591C758.962 206.985 723.689 126.371 770.365 80.5325C814.802 36.8916 891.34 63.2503 953.169 70.7593Z" fill="#F1EFB9"/>
</g>
<g filter="url(#filter5_f_1_26)">
<path fill-rule="evenodd" clip-rule="evenodd" d="M1364.55 119.078C1394.53 136.687 1406.46 174.647 1434.42 195.312C1454.68 210.287 1481.75 211.146 1504.3 222.375C1531.07 235.704 1561.69 244.933 1580.61 268.096C1599.74 291.531 1613.4 322.708 1610.85 352.857C1608.26 383.57 1565.97 402.369 1566.66 433.185C1567.71 480.524 1624.97 518.844 1615.59 565.256C1607.97 602.938 1553.91 609.819 1525.67 635.903C1491.94 667.064 1477.5 731.242 1431.73 735.077C1383.4 739.127 1358.89 668.142 1312.57 653.76C1272.76 641.401 1227.37 675.263 1188.73 659.628C1150.96 644.34 1108.11 611.155 1106.66 570.429C1104.74 516.54 1174.54 481.639 1180.5 428.046C1183.82 398.239 1146.43 379.567 1130.73 354.013C1103.55 309.775 1051.98 272.466 1053.02 220.555C1053.86 177.966 1099.67 147.563 1135.29 124.199C1169.96 101.458 1212.05 89.9721 1253.51 89.0461C1292.17 88.1825 1331.2 99.4916 1364.55 119.078Z" fill="#FBFAE1"/>
</g>
</g>
<defs>
<filter id="filter0_f_1_26" x="101" y="21" width="1568.9" height="1651.12" filterUnits="userSpaceOnUse" color-interpolation-filters="sRGB">
<feFlood flood-opacity="0" result="BackgroundImageFix"/>
<feBlend mode="normal" in="SourceGraphic" in2="BackgroundImageFix" result="shape"/>
<feGaussianBlur stdDeviation="250" result="effect1_foregroundBlur_1_26"/>
</filter>
<filter id="filter1_f_1_26" x="618" y="58" width="1609.64" height="1660.12" filterUnits="userSpaceOnUse" color-interpolation-filters="sRGB">
<feFlood flood-opacity="0" result="BackgroundImageFix"/>
<feBlend mode="normal" in="SourceGraphic" in2="BackgroundImageFix" result="shape"/>
<feGaussianBlur stdDeviation="250" result="effect1_foregroundBlur_1_26"/>
</filter>
<filter id="filter2_f_1_26" x="-500" y="-35" width="1636.14" height="1707.43" filterUnits="userSpaceOnUse" color-interpolation-filters="sRGB">
<feFlood flood-opacity="0" result="BackgroundImageFix"/>
<feBlend mode="normal" in="SourceGraphic" in2="BackgroundImageFix" result="shape"/>
<feGaussianBlur stdDeviation="250" result="effect1_foregroundBlur_1_26"/>
</filter>
<filter id="filter3_f_1_26" x="-406" y="-500" width="1635.92" height="1592.9" filterUnits="userSpaceOnUse" color-interpolation-filters="sRGB">
<feFlood flood-opacity="0" result="BackgroundImageFix"/>
<feBlend mode="normal" in="SourceGraphic" in2="BackgroundImageFix" result="shape"/>
<feGaussianBlur stdDeviation="250" result="effect1_foregroundBlur_1_26"/>
</filter>
<filter id="filter4_f_1_26" x="216" y="-444" width="1540.43" height="1550.24" filterUnits="userSpaceOnUse" color-interpolation-filters="sRGB">
<feFlood flood-opacity="0" result="BackgroundImageFix"/>
<feBlend mode="normal" in="SourceGraphic" in2="BackgroundImageFix" result="shape"/>
<feGaussianBlur stdDeviation="250" result="effect1_foregroundBlur_1_26"/>
</filter>
<filter id="filter5_f_1_26" x="553" y="-411" width="1563.63" height="1646.24" filterUnits="userSpaceOnUse" color-interpolation-filters="sRGB">
<feFlood flood-opacity="0" result="BackgroundImageFix"/>
<feBlend mode="normal" in="SourceGraphic" in2="BackgroundImageFix" result="shape"/>
<feGaussianBlur stdDeviation="250" result="effect1_foregroundBlur_1_26"/>
</filter>
<clipPath id="clip0_1_26">
<rect width="1728" height="1117" fill="white"/>
</clipPath>
</defs>
</svg>
