<svg width="1728" height="1117" viewBox="0 0 1728 1117" fill="none" xmlns="http://www.w3.org/2000/svg">
<g clip-path="url(#clip0_1_28)">
<rect width="1728" height="1117" fill="#0E9577"/>
<g filter="url(#filter0_f_1_28)">
<path fill-rule="evenodd" clip-rule="evenodd" d="M785.8 275.153C850.812 293.306 870.444 376.248 923.487 417.99C969.207 453.969 1057.38 445.045 1072.93 501.108C1089.32 560.217 998.111 600.816 991.084 661.751C983.699 725.795 1060.68 788.253 1033.1 846.521C1007.13 901.365 930.376 916.047 869.73 918.076C814.682 919.918 774.066 866.444 719.802 857.004C654.543 845.651 570.823 906.062 525.111 858.124C480.274 811.102 526.723 731.429 539.273 667.681C548.141 622.641 580.985 587.09 587.42 541.639C597.786 468.42 543.735 383.603 587.893 324.286C629.32 268.636 718.979 256.496 785.8 275.153Z" fill="#FBFAE1"/>
</g>
<g filter="url(#filter1_f_1_28)">
<path fill-rule="evenodd" clip-rule="evenodd" d="M1397.83 563.648C1457.9 546.201 1523.31 571.908 1577.34 603.443C1632.76 635.791 1679.79 683.489 1704.56 742.686C1728.94 800.946 1737.38 869.774 1713.19 928.111C1690.49 982.858 1627.67 1005.07 1580.74 1041.27C1543.75 1069.8 1506.78 1093.71 1466.92 1118.08C1411.56 1151.93 1358.86 1241.78 1301.08 1212.25C1237.65 1179.83 1287.7 1070.57 1252.66 1008.56C1228.2 965.279 1157.29 965.378 1136.13 920.394C1113.47 872.217 1109.99 809.457 1137.56 763.909C1164.91 718.723 1232.93 723.524 1274.79 691.315C1322.6 654.528 1339.9 580.473 1397.83 563.648Z" fill="#F1EFB9"/>
</g>
<g filter="url(#filter2_f_1_28)">
<path fill-rule="evenodd" clip-rule="evenodd" d="M606.16 564.039C693.982 565.663 773.145 616.931 829.127 684.617C880.19 746.355 886.005 827.581 890.301 907.584C894.962 994.384 908.019 1087.41 854.432 1155.86C796.015 1230.47 700.553 1278.83 606.16 1270.49C516.64 1262.59 460.277 1180.53 398.182 1115.56C338.301 1052.91 263.888 994.125 259.281 907.584C254.516 818.1 311.121 739.273 374.791 676.215C438.098 613.516 517.074 562.391 606.16 564.039Z" fill="#04DEAD"/>
</g>
<g filter="url(#filter3_f_1_28)">
<path fill-rule="evenodd" clip-rule="evenodd" d="M204.461 149.499C292.089 142.078 392.45 126.15 455.369 187.59C518.57 249.305 507.39 350.438 500.418 438.498C494.149 517.677 474.698 596.409 418.555 652.591C362.393 708.793 283.878 732.264 204.461 734.664C122.167 737.151 38.6521 720.529 -22.9745 665.934C-88.1547 608.19 -132.96 525.521 -129.847 438.498C-126.817 353.775 -71.4015 282.213 -7.26636 226.77C51.8185 175.693 126.638 156.09 204.461 149.499Z" fill="#F1EFB9"/>
</g>
<g filter="url(#filter4_f_1_28)">
<path fill-rule="evenodd" clip-rule="evenodd" d="M1164.17 -46.2407C1219.7 -39.4961 1274.47 -27.067 1320.5 4.72002C1365.59 35.8538 1395.74 82.0475 1420.64 130.853C1446.5 181.511 1471.59 234.826 1466.85 291.501C1461.99 349.788 1438.77 409.426 1394.22 447.318C1351.54 483.607 1290.83 491.397 1234.87 488.782C1188.39 486.61 1155.11 443.478 1109.55 434.014C1057.61 423.226 994.045 464.785 953.681 430.371C914.694 397.132 929.604 332.768 930.717 281.547C931.679 237.255 952.704 198.342 959.672 154.591C969.962 89.9849 934.689 9.37148 981.365 -36.4675C1025.8 -80.1084 1102.34 -53.7497 1164.17 -46.2407Z" fill="#0E9577"/>
</g>
<g filter="url(#filter5_f_1_28)">
<path fill-rule="evenodd" clip-rule="evenodd" d="M1559.91 559.219C1562.51 593.888 1538.1 625.32 1537.04 660.07C1536.27 685.253 1550.98 707.991 1554.59 732.924C1558.88 762.52 1568.73 792.942 1560.46 821.682C1552.1 850.758 1534.25 879.738 1508.02 894.814C1481.29 910.173 1441.76 886.119 1416.82 904.234C1378.51 932.062 1379.62 1000.95 1336.12 1019.67C1300.81 1034.87 1264.37 994.352 1226.84 985.994C1182.02 976.009 1121.04 1000.69 1091.83 965.255C1060.97 927.833 1105.36 867.258 1090.8 820.993C1078.29 781.236 1024.61 763.208 1015.46 722.547C1006.51 682.789 1009.38 628.666 1042.03 604.282C1085.24 572.017 1153.68 609.513 1201.12 583.891C1227.51 569.641 1221.57 528.276 1233.63 500.818C1254.52 453.283 1255.82 389.649 1299.08 360.934C1334.57 337.374 1385.65 357.718 1425.14 373.69C1463.57 389.237 1496.99 417.294 1521.36 450.84C1544.08 482.129 1557.02 520.654 1559.91 559.219Z" fill="#48F3DB"/>
</g>
</g>
<defs>
<filter id="filter0_f_1_28" x="6" y="-233" width="1568.9" height="1651.12" filterUnits="userSpaceOnUse" color-interpolation-filters="sRGB">
<feFlood flood-opacity="0" result="BackgroundImageFix"/>
<feBlend mode="normal" in="SourceGraphic" in2="BackgroundImageFix" result="shape"/>
<feGaussianBlur stdDeviation="250" result="effect1_foregroundBlur_1_28"/>
</filter>
<filter id="filter1_f_1_28" x="618" y="58" width="1609.64" height="1660.12" filterUnits="userSpaceOnUse" color-interpolation-filters="sRGB">
<feFlood flood-opacity="0" result="BackgroundImageFix"/>
<feBlend mode="normal" in="SourceGraphic" in2="BackgroundImageFix" result="shape"/>
<feGaussianBlur stdDeviation="250" result="effect1_foregroundBlur_1_28"/>
</filter>
<filter id="filter2_f_1_28" x="-241" y="64" width="1636.14" height="1707.43" filterUnits="userSpaceOnUse" color-interpolation-filters="sRGB">
<feFlood flood-opacity="0" result="BackgroundImageFix"/>
<feBlend mode="normal" in="SourceGraphic" in2="BackgroundImageFix" result="shape"/>
<feGaussianBlur stdDeviation="250" result="effect1_foregroundBlur_1_28"/>
</filter>
<filter id="filter3_f_1_28" x="-630" y="-358" width="1635.92" height="1592.9" filterUnits="userSpaceOnUse" color-interpolation-filters="sRGB">
<feFlood flood-opacity="0" result="BackgroundImageFix"/>
<feBlend mode="normal" in="SourceGraphic" in2="BackgroundImageFix" result="shape"/>
<feGaussianBlur stdDeviation="250" result="effect1_foregroundBlur_1_28"/>
</filter>
<filter id="filter4_f_1_28" x="427" y="-561" width="1540.43" height="1550.24" filterUnits="userSpaceOnUse" color-interpolation-filters="sRGB">
<feFlood flood-opacity="0" result="BackgroundImageFix"/>
<feBlend mode="normal" in="SourceGraphic" in2="BackgroundImageFix" result="shape"/>
<feGaussianBlur stdDeviation="250" result="effect1_foregroundBlur_1_28"/>
</filter>
<filter id="filter5_f_1_28" x="511.078" y="-149.783" width="1552.59" height="1672.83" filterUnits="userSpaceOnUse" color-interpolation-filters="sRGB">
<feFlood flood-opacity="0" result="BackgroundImageFix"/>
<feBlend mode="normal" in="SourceGraphic" in2="BackgroundImageFix" result="shape"/>
<feGaussianBlur stdDeviation="250" result="effect1_foregroundBlur_1_28"/>
</filter>
<clipPath id="clip0_1_28">
<rect width="1728" height="1117" fill="white"/>
</clipPath>
</defs>
</svg>
